  0
SECTION
  2
HEADER
  9
$ACADVER
  1
AC1014
  9
$HANDSEED
  5
FFFF
  9
$MEASUREMENT
 70
     1
  0
ENDSEC
  0
SECTION
  2
TABLES
  0
TABLE
  2
VPORT
  5
8
330
0
100
AcDbSymbolTable
 70
     4
  0
VPORT
  5
2E
330
8
100
AcDbSymbolTableRecord
100
AcDbViewportTableRecord
  2
*ACTIVE
 70
     0
 10
0.0
 20
0.0
 11
1.0
 21
1.0
 12
210.0
 22
148.5
 13
0.0
 23
0.0
 14
10.0
 24
10.0
 15
10.0
 25
10.0
 16
0.0
 26
0.0
 36
1.0
 17
0.0
 27
0.0
 37
0.0
 40
341.0
 41
1.24
 42
50.0
 43
0.0
 44
0.0
 50
0.0
 51
0.0
 71
     0
 72
   100
 73
     1
 74
     3
 75
     0
 76
     0
 77
     0
 78
     0
  0
ENDTAB
  0
TABLE
  2
LTYPE
  5
5
330
0
100
AcDbSymbolTable
 70
     1
  0
LTYPE
  5
14
330
5
100
AcDbSymbolTableRecord
100
AcDbLinetypeTableRecord
  2
BYBLOCK
 70
     0
  3

 72
    65
 73
     0
 40
0.0
  0
LTYPE
  5
15
330
5
100
AcDbSymbolTableRecord
100
AcDbLinetypeTableRecord
  2
BYLAYER
 70
     0
  3

 72
    65
 73
     0
 40
0.0
  0
LTYPE
  5
16
330
5
100
AcDbSymbolTableRecord
100
AcDbLinetypeTableRecord
  2
CONTINUOUS
 70
     0
  3
Solid line
 72
    65
 73
     0
 40
0.0
  0
ENDTAB
  0
TABLE
  2
LAYER
  5
2
100
AcDbSymbolTable
 70
1
  0
LAYER
  5
50
100
AcDbSymbolTableRecord
100
AcDbLayerTableRecord
  2
0
 70
0
  6
CONTINUOUS
  0
ENDTAB
  0
TABLE
  2
STYLE
  5
3
330
0
100
AcDbSymbolTable
 70
     1
  0
STYLE
  5
11
330
3
100
AcDbSymbolTableRecord
100
AcDbTextStyleTableRecord
  2
STANDARD
 70
     0
 40
0.0
 41
1.0
 50
0.0
 71
     0
 42
2.5
  3
txt
  4

  0
ENDTAB
  0
TABLE
  2
VIEW
  5
6
330
0
100
AcDbSymbolTable
 70
     0
  0
ENDTAB
  0
TABLE
  2
UCS
  5
7
330
0
100
AcDbSymbolTable
 70
     0
  0
ENDTAB
  0
TABLE
  2
APPID
  5
9
330
0
100
AcDbSymbolTable
 70
     2
  0
APPID
  5
12
330
9
100
AcDbSymbolTableRecord
100
AcDbRegAppTableRecord
  2
ACAD
 70
     0
  0
ENDTAB
  0
TABLE
  2
DIMSTYLE
  5
A
330
0
100
AcDbSymbolTable
 70
     1
  0
DIMSTYLE
105
27
330
A
100
AcDbSymbolTableRecord
100
AcDbDimStyleTableRecord
  2
ISO-25
 70
     0
  3

  4

  5

  6

  7

 40
1.0
 41
2.5
 42
0.625
 43
3.75
 44
1.25
 45
0.0
 46
0.0
 47
0.0
 48
0.0
140
2.5
141
2.5
142
0.0
143
0.03937007874016
144
1.0
145
0.0
146
1.0
147
0.625
 71
     0
 72
     0
 73
     0
 74
     0
 75
     0
 76
     0
 77
     1
 78
     8
170
     0
171
     3
172
     1
173
     0
174
     0
175
     0
176
     0
177
     0
178
     0
270
     2
271
     2
272
     2
273
     2
274
     3
340
11
275
     0
280
     0
281
     0
282
     0
283
     0
284
     8
285
     0
286
     0
287
     3
288
     0
  0
ENDTAB
  0
TABLE
  2
BLOCK_RECORD
  5
1
330
0
100
AcDbSymbolTable
 70
     1
  0
BLOCK_RECORD
  5
1F
330
1
100
AcDbSymbolTableRecord
100
AcDbBlockTableRecord
  2
*MODEL_SPACE
  0
BLOCK_RECORD
  5
1B
330
1
100
AcDbSymbolTableRecord
100
AcDbBlockTableRecord
  2
*PAPER_SPACE
  0
ENDTAB
  0
ENDSEC
  0
SECTION
  2
BLOCKS
  0
BLOCK
  5
20
330
1F
100
AcDbEntity
  8
0
100
AcDbBlockBegin
  2
*MODEL_SPACE
 70
     0
 10
0.0
 20
0.0
 30
0.0
  3
*MODEL_SPACE
  1

  0
ENDBLK
  5
21
330
1F
100
AcDbEntity
  8
0
100
AcDbBlockEnd
  0
BLOCK
  5
1C
330
1B
100
AcDbEntity
 67
     1
  8
0
100
AcDbBlockBegin
  2
*PAPER_SPACE
  1

  0
ENDBLK
  5
1D
330
1B
100
AcDbEntity
 67
     1
  8
0
100
AcDbBlockEnd
  0
ENDSEC
  0
SECTION
  2
ENTITIES
  0
LWPOLYLINE
  5
100
100
AcDbEntity
  8
0
 62
7
100
AcDbPolyline
 90
38
 70
0
 10
2.627489
 20
26.689756
 30
0.0
 10
2.932774
 20
26.833027
 30
0.0
 10
3.268486
 20
26.879197
 30
0.0
 10
3.953933
 20
26.892956
 30
0.0
 10
7.765344
 20
26.887311
 30
0.0
 10
11.576756
 20
26.864733
 30
0.0
 10
11.836130
 20
26.825448
 30
0.0
 10
12.070071
 20
26.726665
 30
0.0
 10
12.275107
 20
26.577942
 30
0.0
 10
12.447764
 20
26.388836
 30
0.0
 10
12.584570
 20
26.168907
 30
0.0
 10
12.682052
 20
25.927711
 30
0.0
 10
12.736738
 20
25.674808
 30
0.0
 10
12.745156
 20
25.419756
 30
0.0
 10
12.747978
 20
17.757422
 30
0.0
 10
12.752106
 20
17.446570
 30
0.0
 10
12.688932
 20
17.145441
 30
0.0
 10
12.565763
 20
16.864553
 30
0.0
 10
12.389908
 20
16.614422
 30
0.0
 10
12.168678
 20
16.405567
 30
0.0
 10
11.909381
 20
16.248503
 30
0.0
 10
11.619326
 20
16.153750
 30
0.0
 10
11.305822
 20
16.131822
 30
0.0
 10
3.646311
 20
16.131822
 30
0.0
 10
3.346450
 20
16.125538
 30
0.0
 10
3.051351
 20
16.179447
 30
0.0
 10
2.772392
 20
16.288389
 30
0.0
 10
2.520950
 20
16.447206
 30
0.0
 10
2.308401
 20
16.650736
 30
0.0
 10
2.146124
 20
16.893822
 30
0.0
 10
2.045494
 20
17.171304
 30
0.0
 10
2.017889
 20
17.478022
 30
0.0
 10
2.009422
 20
25.414111
 30
0.0
 10
2.031780
 20
25.785674
 30
0.0
 10
2.152297
 20
26.132367
 30
0.0
 10
2.355894
 20
26.438842
 30
0.0
 10
2.627489
 20
26.689756
 30
0.0
 10
2.627489
 20
26.689756
 30
0.0
  0
LWPOLYLINE
  5
101
100
AcDbEntity
  8
0
 62
7
100
AcDbPolyline
 90
18
 70
0
 10
4.648200
 20
23.706667
 30
0.0
 10
4.660547
 20
23.997797
 30
0.0
 10
4.740628
 20
24.272522
 30
0.0
 10
5.006622
 20
24.787578
 30
0.0
 10
6.352999
 20
24.003838
 30
0.0
 10
7.715250
 20
23.235708
 30
0.0
 10
9.034110
 20
22.406725
 30
0.0
 10
9.658747
 20
21.945517
 30
0.0
 10
10.250311
 20
21.440422
 30
0.0
 10
9.013649
 20
20.549438
 30
0.0
 10
7.716661
 20
19.743914
 30
0.0
 10
5.043311
 20
18.265422
 30
0.0
 10
4.784019
 20
18.694047
 30
0.0
 10
4.688902
 20
18.922250
 30
0.0
 10
4.662311
 20
19.171356
 30
0.0
 10
4.642556
 20
21.440069
 30
0.0
 10
4.648200
 20
23.706667
 30
0.0
 10
4.648200
 20
23.706667
 30
0.0
  0
LWPOLYLINE
  5
102
100
AcDbEntity
  8
0
 62
7
100
AcDbPolyline
 90
37
 70
0
 10
14.782800
 20
24.183622
 30
0.0
 10
15.086586
 20
24.313444
 30
0.0
 10
15.416036
 20
24.354367
 30
0.0
 10
16.089489
 20
24.364244
 30
0.0
 10
18.770600
 20
24.358247
 30
0.0
 10
21.451711
 20
24.350133
 30
0.0
 10
21.680807
 20
24.334617
 30
0.0
 10
21.887480
 20
24.264100
 30
0.0
 10
22.068356
 20
24.147082
 30
0.0
 10
22.220061
 20
23.992064
 30
0.0
 10
22.422467
 20
23.602024
 30
0.0
 10
22.466421
 20
23.384002
 30
0.0
 10
22.467711
 20
23.161978
 30
0.0
 10
22.484644
 20
17.226844
 30
0.0
 10
22.464861
 20
16.978930
 30
0.0
 10
22.387763
 20
16.751124
 30
0.0
 10
22.261650
 20
16.548982
 30
0.0
 10
22.094825
 20
16.378061
 30
0.0
 10
21.895588
 20
16.243917
 30
0.0
 10
21.672241
 20
16.152107
 30
0.0
 10
21.433086
 20
16.108186
 30
0.0
 10
21.186422
 20
16.117711
 30
0.0
 10
18.231556
 20
16.137114
 30
0.0
 10
15.276689
 20
16.171333
 30
0.0
 10
15.077513
 20
16.187583
 30
0.0
 10
14.891367
 20
16.248944
 30
0.0
 10
14.575367
 20
16.481072
 30
0.0
 10
14.363083
 20
16.815858
 30
0.0
 10
14.288911
 20
17.201444
 30
0.0
 10
14.281856
 20
19.891375
 30
0.0
 10
14.274800
 20
22.583422
 30
0.0
 10
14.275594
 20
23.022366
 30
0.0
 10
14.319250
 20
23.468189
 30
0.0
 10
14.467681
 20
23.871678
 30
0.0
 10
14.600535
 20
24.042169
 30
0.0
 10
14.782800
 20
24.183622
 30
0.0
 10
14.782800
 20
24.183622
 30
0.0
  0
LWPOLYLINE
  5
103
100
AcDbEntity
  8
0
 62
7
100
AcDbPolyline
 90
15
 70
0
 10
41.145178
 20
24.090489
 30
0.0
 10
41.722829
 20
23.912705
 30
0.0
 10
42.279182
 20
23.678930
 30
0.0
 10
43.342278
 20
23.088247
 30
0.0
 10
45.370044
 20
21.728289
 30
0.0
 10
44.944600
 20
21.347350
 30
0.0
 10
44.492730
 20
20.997466
 30
0.0
 10
43.528897
 20
20.373269
 30
0.0
 10
42.516910
 20
19.820511
 30
0.0
 10
41.495133
 20
19.304000
 30
0.0
 10
41.204444
 20
19.450756
 30
0.0
 10
41.095568
 20
20.605530
 30
0.0
 10
41.080619
 20
21.767447
 30
0.0
 10
41.145178
 20
24.090489
 30
0.0
 10
41.145178
 20
24.090489
 30
0.0
  0
LWPOLYLINE
  5
104
100
AcDbEntity
  8
0
 62
7
100
AcDbPolyline
 90
21
 70
0
 10
16.301156
 20
22.747111
 30
0.0
 10
16.885058
 20
22.548580
 30
0.0
 10
17.446008
 20
22.297099
 30
0.0
 10
18.517306
 20
21.680664
 30
0.0
 10
19.551562
 20
20.988558
 30
0.0
 10
20.585289
 20
20.311533
 30
0.0
 10
20.345543
 20
20.043731
 30
0.0
 10
20.080728
 20
19.807414
 30
0.0
 10
19.497322
 20
19.402778
 30
0.0
 10
18.265422
 20
18.680289
 30
0.0
 10
17.504128
 20
18.216033
 30
0.0
 10
17.112103
 20
18.007189
 30
0.0
 10
16.696267
 20
17.853378
 30
0.0
 10
16.530941
 20
17.896080
 30
0.0
 10
16.417705
 20
17.987036
 30
0.0
 10
16.346471
 20
18.114968
 30
0.0
 10
16.307153
 20
18.268597
 30
0.0
 10
16.267289
 20
18.914533
 30
0.0
 10
16.260939
 20
20.831881
 30
0.0
 10
16.301156
 20
22.747111
 30
0.0
 10
16.301156
 20
22.747111
 30
0.0
  0
LWPOLYLINE
  5
105
100
AcDbEntity
  8
0
 62
7
100
AcDbPolyline
 90
69
 70
0
 10
56.340022
 20
21.776267
 30
0.0
 10
57.220600
 20
22.006675
 30
0.0
 10
58.131075
 20
22.114581
 30
0.0
 10
58.587685
 20
22.111102
 30
0.0
 10
59.039963
 20
22.063207
 30
0.0
 10
59.483972
 20
21.966298
 30
0.0
 10
59.915778
 20
21.815778
 30
0.0
 10
60.124622
 20
21.510978
 30
0.0
 10
60.154785
 20
17.169253
 30
0.0
 10
60.152139
 20
12.827000
 30
0.0
 10
60.175422
 20
4.143022
 30
0.0
 10
59.839798
 20
3.989751
 30
0.0
 10
59.491210
 20
3.885230
 30
0.0
 10
58.767839
 20
3.795183
 30
0.0
 10
58.030710
 20
3.818378
 30
0.0
 10
57.305222
 20
3.900311
 30
0.0
 10
57.065455
 20
4.044542
 30
0.0
 10
56.922194
 20
4.244005
 30
0.0
 10
56.853678
 20
4.485404
 30
0.0
 10
56.838144
 20
4.755444
 30
0.0
 10
56.878978
 20
5.328267
 30
0.0
 10
56.870600
 20
5.856111
 30
0.0
 10
55.937547
 20
5.005652
 30
0.0
 10
55.430489
 20
4.621731
 30
0.0
 10
54.896808
 20
4.280606
 30
0.0
 10
54.336801
 20
3.993720
 30
0.0
 10
53.750766
 20
3.772517
 30
0.0
 10
53.138999
 20
3.628441
 30
0.0
 10
52.501800
 20
3.572933
 30
0.0
 10
51.894719
 20
3.549457
 30
0.0
 10
51.287936
 20
3.591498
 30
0.0
 10
50.690214
 20
3.699487
 30
0.0
 10
50.110319
 20
3.873853
 30
0.0
 10
49.557015
 20
4.115026
 30
0.0
 10
49.039066
 20
4.423436
 30
0.0
 10
48.565235
 20
4.799514
 30
0.0
 10
48.144289
 20
5.243689
 30
0.0
 10
47.672333
 20
5.893280
 30
0.0
 10
47.292286
 20
6.591256
 30
0.0
 10
46.995782
 20
7.328324
 30
0.0
 10
46.774453
 20
8.095192
 30
0.0
 10
46.619931
 20
8.882564
 30
0.0
 10
46.523848
 20
9.681148
 30
0.0
 10
46.477838
 20
10.481651
 30
0.0
 10
46.473533
 20
11.274778
 30
0.0
 10
46.497787
 20
12.034380
 30
0.0
 10
46.563844
 20
12.797058
 30
0.0
 10
46.677527
 20
13.555569
 30
0.0
 10
46.844656
 20
14.302669
 30
0.0
 10
47.071051
 20
15.031117
 30
0.0
 10
47.362533
 20
15.733668
 30
0.0
 10
47.724924
 20
16.403081
 30
0.0
 10
48.164044
 20
17.032111
 30
0.0
 10
48.683620
 20
17.586160
 30
0.0
 10
49.281644
 20
18.047141
 30
0.0
 10
49.942640
 20
18.413534
 30
0.0
 10
50.651128
 20
18.683817
 30
0.0
 10
51.391630
 20
18.856468
 30
0.0
 10
52.148669
 20
18.929967
 30
0.0
 10
52.906767
 20
18.902792
 30
0.0
 10
53.650444
 20
18.773422
 30
0.0
 10
54.034526
 20
18.661492
 30
0.0
 10
54.400582
 20
18.511397
 30
0.0
 10
55.085897
 20
18.118667
 30
0.0
 10
55.720941
 20
17.639153
 30
0.0
 10
56.320267
 20
17.116778
 30
0.0
 10
56.314269
 20
19.447581
 30
0.0
 10
56.340022
 20
21.776267
 30
0.0
 10
56.340022
 20
21.776267
 30
0.0
  0
LWPOLYLINE
  5
106
100
AcDbEntity
  8
0
 62
7
100
AcDbPolyline
 90
70
 70
0
 10
93.463533
 20
21.759333
 30
0.0
 10
93.914312
 20
21.927178
 30
0.0
 10
94.377360
 20
22.041644
 30
0.0
 10
94.849074
 20
22.106500
 30
0.0
 10
95.325847
 20
22.125517
 30
0.0
 10
96.280155
 20
22.041115
 30
0.0
 10
97.211444
 20
21.818600
 30
0.0
 10
97.246369
 20
19.391136
 30
0.0
 10
97.245311
 20
16.961556
 30
0.0
 10
98.062697
 20
17.665832
 30
0.0
 10
98.503206
 20
17.983161
 30
0.0
 10
98.964750
 20
18.265069
 30
0.0
 10
99.447196
 20
18.502395
 30
0.0
 10
99.950411
 20
18.685977
 30
0.0
 10
100.474264
 20
18.806655
 30
0.0
 10
101.018622
 20
18.855267
 30
0.0
 10
101.593937
 20
18.887810
 30
0.0
 10
102.171500
 20
18.865321
 30
0.0
 10
102.743243
 20
18.785417
 30
0.0
 10
103.301094
 20
18.645717
 30
0.0
 10
103.836986
 20
18.443840
 30
0.0
 10
104.342847
 20
18.177404
 30
0.0
 10
104.810609
 20
17.844029
 30
0.0
 10
105.232200
 20
17.441333
 30
0.0
 10
105.766829
 20
16.764342
 30
0.0
 10
106.194534
 20
16.028017
 30
0.0
 10
106.525864
 20
15.243936
 30
0.0
 10
106.771369
 20
14.423672
 30
0.0
 10
106.941601
 20
13.578803
 30
0.0
 10
107.047109
 20
12.720902
 30
0.0
 10
107.098444
 20
11.861546
 30
0.0
 10
107.106156
 20
11.012311
 30
0.0
 10
107.062924
 20
10.136529
 30
0.0
 10
106.959268
 20
9.252744
 30
0.0
 10
106.786622
 20
8.375970
 30
0.0
 10
106.536419
 20
7.521222
 30
0.0
 10
106.200095
 20
6.703516
 30
0.0
 10
105.769084
 20
5.937867
 30
0.0
 10
105.234818
 20
5.239290
 30
0.0
 10
104.588733
 20
4.622800
 30
0.0
 10
104.087888
 20
4.257592
 30
0.0
 10
103.545834
 20
3.974968
 30
0.0
 10
102.971368
 20
3.768874
 30
0.0
 10
102.373289
 20
3.633258
 30
0.0
 10
101.760393
 20
3.562069
 30
0.0
 10
101.141477
 20
3.549253
 30
0.0
 10
100.525340
 20
3.588759
 30
0.0
 10
99.920778
 20
3.674533
 30
0.0
 10
99.442698
 20
3.805166
 30
0.0
 10
98.991208
 20
3.992518
 30
0.0
 10
98.564061
 20
4.228224
 30
0.0
 10
98.159006
 20
4.503914
 30
0.0
 10
97.406178
 20
5.141780
 30
0.0
 10
96.714733
 20
5.839178
 30
0.0
 10
96.720995
 20
5.362222
 30
0.0
 10
96.745778
 20
4.874683
 30
0.0
 10
96.709177
 20
4.400903
 30
0.0
 10
96.642888
 20
4.176779
 30
0.0
 10
96.531289
 20
3.965222
 30
0.0
 10
95.836537
 20
3.829932
 30
0.0
 10
95.126175
 20
3.778250
 30
0.0
 10
94.416342
 20
3.814410
 30
0.0
 10
93.723178
 20
3.942644
 30
0.0
 10
93.577712
 20
4.030503
 30
0.0
 10
93.481790
 20
4.145977
 30
0.0
 10
93.398622
 20
4.434769
 30
0.0
 10
93.387333
 20
5.068711
 30
0.0
 10
93.455067
 20
13.414022
 30
0.0
 10
93.463533
 20
21.759333
 30
0.0
 10
93.463533
 20
21.759333
 30
0.0
  0
LWPOLYLINE
  5
107
100
AcDbEntity
  8
0
 62
7
100
AcDbPolyline
 90
23
 70
0
 10
108.762800
 20
21.869400
 30
0.0
 10
109.686240
 20
22.051522
 30
0.0
 10
110.623703
 20
22.117756
 30
0.0
 10
111.556403
 20
22.040056
 30
0.0
 10
112.015097
 20
21.938467
 30
0.0
 10
112.465556
 20
21.790378
 30
0.0
 10
112.513533
 20
6.214533
 30
0.0
 10
112.525528
 20
5.168194
 30
0.0
 10
112.513533
 20
4.645290
 30
0.0
 10
112.457089
 20
4.126089
 30
0.0
 10
112.001493
 20
3.963177
 30
0.0
 10
111.524300
 20
3.848850
 30
0.0
 10
111.032754
 20
3.782742
 30
0.0
 10
110.534097
 20
3.764492
 30
0.0
 10
110.035573
 20
3.793734
 30
0.0
 10
109.544423
 20
3.870105
 30
0.0
 10
109.067892
 20
3.993240
 30
0.0
 10
108.613222
 20
4.162778
 30
0.0
 10
108.688187
 20
8.587978
 30
0.0
 10
108.696478
 20
13.015031
 30
0.0
 10
108.700535
 20
17.442612
 30
0.0
 10
108.762800
 20
21.869400
 30
0.0
 10
108.762800
 20
21.869400
 30
0.0
  0
LWPOLYLINE
  5
108
100
AcDbEntity
  8
0
 62
7
100
AcDbPolyline
 90
53
 70
0
 10
141.605000
 20
21.776267
 30
0.0
 10
142.069234
 20
21.932040
 30
0.0
 10
142.544976
 20
22.041908
 30
0.0
 10
143.028392
 20
22.106268
 30
0.0
 10
143.515644
 20
22.125517
 30
0.0
 10
144.002897
 20
22.100051
 30
0.0
 10
144.486312
 20
22.030267
 30
0.0
 10
144.962055
 20
21.916562
 30
0.0
 10
145.426289
 20
21.759333
 30
0.0
 10
145.440400
 20
12.635089
 30
0.0
 10
146.556898
 20
14.053256
 30
0.0
 10
147.624447
 20
15.511639
 30
0.0
 10
148.699934
 20
16.962614
 30
0.0
 10
149.840244
 20
18.358556
 30
0.0
 10
150.266273
 20
18.484238
 30
0.0
 10
150.705829
 20
18.564975
 30
0.0
 10
151.610836
 20
18.617142
 30
0.0
 10
152.525898
 20
18.566121
 30
0.0
 10
153.421644
 20
18.462978
 30
0.0
 10
153.592047
 20
18.302960
 30
0.0
 10
153.675203
 20
18.119990
 30
0.0
 10
153.686261
 20
17.921541
 30
0.0
 10
153.640367
 20
17.715089
 30
0.0
 10
153.438313
 20
17.308072
 30
0.0
 10
153.190222
 20
16.958733
 30
0.0
 10
151.226308
 20
14.707658
 30
0.0
 10
149.264511
 20
12.454467
 30
0.0
 10
153.616378
 20
5.751689
 30
0.0
 10
154.033008
 20
4.990042
 30
0.0
 10
154.341689
 20
4.179711
 30
0.0
 10
153.854233
 20
4.006911
 30
0.0
 10
153.346635
 20
3.881570
 30
0.0
 10
152.825478
 20
3.802729
 30
0.0
 10
152.297342
 20
3.769431
 30
0.0
 10
151.768809
 20
3.780714
 30
0.0
 10
151.246461
 20
3.835620
 30
0.0
 10
150.736879
 20
3.933191
 30
0.0
 10
150.246644
 20
4.072467
 30
0.0
 10
149.002618
 20
5.911585
 30
0.0
 10
147.814947
 20
7.791450
 30
0.0
 10
145.457333
 20
11.565467
 30
0.0
 10
145.474267
 20
4.159956
 30
0.0
 10
145.006153
 20
3.989139
 30
0.0
 10
144.521767
 20
3.869223
 30
0.0
 10
144.026268
 20
3.798452
 30
0.0
 10
143.524817
 20
3.775075
 30
0.0
 10
143.022571
 20
3.797339
 30
0.0
 10
142.524692
 20
3.863490
 30
0.0
 10
142.036337
 20
3.971776
 30
0.0
 10
141.562667
 20
4.120444
 30
0.0
 10
141.590183
 20
12.948356
 30
0.0
 10
141.605000
 20
21.776267
 30
0.0
 10
141.605000
 20
21.776267
 30
0.0
  0
LWPOLYLINE
  5
109
100
AcDbEntity
  8
0
 62
7
100
AcDbPolyline
 90
87
 70
0
 10
63.415333
 20
16.724489
 30
0.0
 10
63.814997
 20
17.150198
 30
0.0
 10
64.250447
 20
17.529175
 30
0.0
 10
64.717778
 20
17.861982
 30
0.0
 10
65.213089
 20
18.149182
 30
0.0
 10
65.732477
 20
18.391336
 30
0.0
 10
66.272040
 20
18.589008
 30
0.0
 10
66.827874
 20
18.742758
 30
0.0
 10
67.396078
 20
18.853150
 30
0.0
 10
67.972748
 20
18.920746
 30
0.0
 10
68.553983
 20
18.946107
 30
0.0
 10
69.714533
 20
18.872376
 30
0.0
 10
70.846509
 20
18.636456
 30
0.0
 10
71.392025
 20
18.459081
 30
0.0
 10
71.918689
 20
18.242844
 30
0.0
 10
72.332696
 20
18.027226
 30
0.0
 10
72.714693
 20
17.775993
 30
0.0
 10
73.065279
 20
17.492025
 30
0.0
 10
73.385054
 20
17.178205
 30
0.0
 10
73.934566
 20
16.472534
 30
0.0
 10
74.368025
 20
15.682031
 30
0.0
 10
74.690227
 20
14.829747
 30
0.0
 10
74.905967
 20
13.938735
 30
0.0
 10
75.020041
 20
13.032047
 30
0.0
 10
75.037244
 20
12.132733
 30
0.0
 10
75.040199
 20
11.586192
 30
0.0
 10
74.950814
 20
11.020072
 30
0.0
 10
74.849252
 20
10.766546
 30
0.0
 10
74.697916
 20
10.552377
 30
0.0
 10
74.487909
 20
10.392315
 30
0.0
 10
74.210333
 20
10.301111
 30
0.0
 10
72.056272
 20
10.259219
 30
0.0
 10
69.900094
 20
10.258072
 30
0.0
 10
65.585622
 20
10.261600
 30
0.0
 10
65.601756
 20
9.766840
 30
0.0
 10
65.662307
 20
9.265267
 30
0.0
 10
65.772798
 20
8.770441
 30
0.0
 10
65.938753
 20
8.295922
 30
0.0
 10
66.165694
 20
7.855270
 30
0.0
 10
66.459144
 20
7.462044
 30
0.0
 10
66.824627
 20
7.129804
 30
0.0
 10
67.267667
 20
6.872111
 30
0.0
 10
68.086315
 20
6.585986
 30
0.0
 10
68.919416
 20
6.451600
 30
0.0
 10
69.761580
 20
6.443685
 30
0.0
 10
70.607414
 20
6.536972
 30
0.0
 10
71.451528
 20
6.706195
 30
0.0
 10
72.288532
 20
6.926086
 30
0.0
 10
73.919644
 20
7.416800
 30
0.0
 10
74.130302
 20
7.312201
 30
0.0
 10
74.269820
 20
7.144103
 30
0.0
 10
74.351990
 20
6.927850
 30
0.0
 10
74.390603
 20
6.678789
 30
0.0
 10
74.392323
 20
6.143625
 30
0.0
 10
74.385311
 20
5.661378
 30
0.0
 10
74.361306
 20
5.198318
 30
0.0
 10
74.200147
 20
4.833982
 30
0.0
 10
73.930046
 20
4.553055
 30
0.0
 10
73.579214
 20
4.340225
 30
0.0
 10
73.175862
 20
4.180180
 30
0.0
 10
72.748202
 20
4.057606
 30
0.0
 10
71.932800
 20
3.863622
 30
0.0
 10
71.019354
 20
3.716360
 30
0.0
 10
70.088345
 20
3.608917
 30
0.0
 10
69.148672
 20
3.553861
 30
0.0
 10
68.209231
 20
3.563761
 30
0.0
 10
67.278917
 20
3.651184
 30
0.0
 10
66.366628
 20
3.828697
 30
0.0
 10
65.481261
 20
4.108869
 30
0.0
 10
64.631711
 20
4.504267
 30
0.0
 10
64.017034
 20
4.904328
 30
0.0
 10
63.479848
 20
5.387005
 30
0.0
 10
63.018265
 20
5.939664
 30
0.0
 10
62.630403
 20
6.549672
 30
0.0
 10
62.314375
 20
7.204395
 30
0.0
 10
62.068295
 20
7.891198
 30
0.0
 10
61.890281
 20
8.597448
 30
0.0
 10
61.778444
 20
9.310511
 30
0.0
 10
61.687069
 20
10.274532
 30
0.0
 10
61.662336
 20
11.253170
 30
0.0
 10
61.713208
 20
12.233793
 30
0.0
 10
61.848647
 20
13.203767
 30
0.0
 10
62.077617
 20
14.150457
 30
0.0
 10
62.409079
 20
15.061230
 30
0.0
 10
62.851997
 20
15.923452
 30
0.0
 10
63.415333
 20
16.724489
 30
0.0
 10
63.415333
 20
16.724489
 30
0.0
  0
LWPOLYLINE
  5
10a
100
AcDbEntity
  8
0
 62
7
100
AcDbPolyline
 90
58
 70
0
 10
81.121956
 20
18.702867
 30
0.0
 10
82.008304
 20
18.841690
 30
0.0
 10
82.914728
 20
18.919164
 30
0.0
 10
83.828494
 20
18.925265
 30
0.0
 10
84.736869
 20
18.849975
 30
0.0
 10
85.627121
 20
18.683271
 30
0.0
 10
86.486515
 20
18.415132
 30
0.0
 10
87.302319
 20
18.035538
 30
0.0
 10
88.061800
 20
17.534467
 30
0.0
 10
88.698184
 20
16.938063
 30
0.0
 10
89.218514
 20
16.257852
 30
0.0
 10
89.631887
 20
15.509511
 30
0.0
 10
89.947397
 20
14.708717
 30
0.0
 10
90.174140
 20
13.871145
 30
0.0
 10
90.321209
 20
13.012473
 30
0.0
 10
90.397702
 20
12.148377
 30
0.0
 10
90.412711
 20
11.294533
 30
0.0
 10
90.384257
 20
10.421282
 30
0.0
 10
90.280860
 20
9.544623
 30
0.0
 10
90.097692
 20
8.678879
 30
0.0
 10
89.829922
 20
7.838369
 30
0.0
 10
89.472724
 20
7.037415
 30
0.0
 10
89.021267
 20
6.290336
 30
0.0
 10
88.470725
 20
5.611454
 30
0.0
 10
87.816267
 20
5.015089
 30
0.0
 10
87.055430
 20
4.496798
 30
0.0
 10
86.237542
 20
4.104614
 30
0.0
 10
85.375138
 20
3.826796
 30
0.0
 10
84.480753
 20
3.651603
 30
0.0
 10
83.566921
 20
3.567294
 30
0.0
 10
82.646176
 20
3.562130
 30
0.0
 10
81.731054
 20
3.624367
 30
0.0
 10
80.834089
 20
3.742267
 30
0.0
 10
80.054400
 20
3.933957
 30
0.0
 10
79.312514
 20
4.232275
 30
0.0
 10
78.619774
 20
4.628489
 30
0.0
 10
77.987525
 20
5.113867
 30
0.0
 10
77.427110
 20
5.679678
 30
0.0
 10
76.949873
 20
6.317192
 30
0.0
 10
76.567159
 20
7.017676
 30
0.0
 10
76.290311
 20
7.772400
 30
0.0
 10
76.077244
 20
8.617909
 30
0.0
 10
75.926156
 20
9.480285
 30
0.0
 10
75.838965
 20
10.353377
 30
0.0
 10
75.817589
 20
11.231033
 30
0.0
 10
75.863946
 20
12.107102
 30
0.0
 10
75.979955
 20
12.975431
 30
0.0
 10
76.167533
 20
13.829870
 30
0.0
 10
76.428600
 20
14.664267
 30
0.0
 10
76.747528
 20
15.410210
 30
0.0
 10
77.163921
 20
16.102145
 30
0.0
 10
77.667296
 20
16.732630
 30
0.0
 10
78.247169
 20
17.294225
 30
0.0
 10
78.893056
 20
17.779487
 30
0.0
 10
79.594472
 20
18.180976
 30
0.0
 10
80.340933
 20
18.491250
 30
0.0
 10
81.121956
 20
18.702867
 30
0.0
 10
81.121956
 20
18.702867
 30
0.0
  0
LWPOLYLINE
  5
10b
100
AcDbEntity
  8
0
 62
7
100
AcDbPolyline
 90
58
 70
0
 10
119.255822
 20
18.680289
 30
0.0
 10
120.161033
 20
18.799825
 30
0.0
 10
121.087312
 20
18.869290
 30
0.0
 10
122.020801
 20
18.874063
 30
0.0
 10
122.947642
 20
18.799528
 30
0.0
 10
123.853977
 20
18.631065
 30
0.0
 10
124.725950
 20
18.354058
 30
0.0
 10
125.549703
 20
17.953886
 30
0.0
 10
126.311378
 20
17.415933
 30
0.0
 10
126.916943
 20
16.814376
 30
0.0
 10
127.412044
 20
16.136717
 30
0.0
 10
127.805017
 20
15.397080
 30
0.0
 10
128.104194
 20
14.609586
 30
0.0
 10
128.317912
 20
13.788358
 30
0.0
 10
128.454503
 20
12.947518
 30
0.0
 10
128.522302
 20
12.101187
 30
0.0
 10
128.529644
 20
11.263489
 30
0.0
 10
128.508786
 20
10.367814
 30
0.0
 10
128.403526
 20
9.469129
 30
0.0
 10
128.210160
 20
8.582946
 30
0.0
 10
127.924983
 20
7.724775
 30
0.0
 10
127.544292
 20
6.910128
 30
0.0
 10
127.064382
 20
6.154517
 30
0.0
 10
126.481549
 20
5.473452
 30
0.0
 10
125.792089
 20
4.882444
 30
0.0
 10
125.055505
 20
4.412831
 30
0.0
 10
124.270867
 20
4.057121
 30
0.0
 10
123.448592
 20
3.804334
 30
0.0
 10
122.599097
 20
3.643489
 30
0.0
 10
121.732802
 20
3.563607
 30
0.0
 10
120.860123
 20
3.553707
 30
0.0
 10
119.991480
 20
3.602809
 30
0.0
 10
119.137289
 20
3.699933
 30
0.0
 10
118.389863
 20
3.867244
 30
0.0
 10
117.670615
 20
4.128250
 30
0.0
 10
116.990790
 20
4.477163
 30
0.0
 10
116.361633
 20
4.908197
 30
0.0
 10
115.794389
 20
5.415563
 30
0.0
 10
115.300301
 20
5.993474
 30
0.0
 10
114.890616
 20
6.636141
 30
0.0
 10
114.576578
 20
7.337778
 30
0.0
 10
114.292151
 20
8.283443
 30
0.0
 10
114.091861
 20
9.252126
 30
0.0
 10
113.977297
 20
10.235362
 30
0.0
 10
113.950044
 20
11.224683
 30
0.0
 10
114.011692
 20
12.211623
 30
0.0
 10
114.163828
 20
13.187715
 30
0.0
 10
114.408038
 20
14.144493
 30
0.0
 10
114.745911
 20
15.073489
 30
0.0
 10
115.085664
 20
15.746010
 30
0.0
 10
115.508132
 20
16.363730
 30
0.0
 10
116.003955
 20
16.922381
 30
0.0
 10
116.563775
 20
17.417697
 30
0.0
 10
117.178231
 20
17.845413
 30
0.0
 10
117.837964
 20
18.201261
 30
0.0
 10
118.533614
 20
18.480975
 30
0.0
 10
119.255822
 20
18.680289
 30
0.0
 10
119.255822
 20
18.680289
 30
0.0
  0
LWPOLYLINE
  5
10c
100
AcDbEntity
  8
0
 62
7
100
AcDbPolyline
 90
93
 70
0
 10
133.352822
 20
18.423467
 30
0.0
 10
134.119315
 20
18.645739
 30
0.0
 10
134.910645
 20
18.795118
 30
0.0
 10
135.715667
 20
18.866974
 30
0.0
 10
136.523236
 20
18.856678
 30
0.0
 10
137.322206
 20
18.759598
 30
0.0
 10
138.101432
 20
18.571104
 30
0.0
 10
138.849767
 20
18.286567
 30
0.0
 10
139.556067
 20
17.901356
 30
0.0
 10
139.873275
 20
17.642924
 30
0.0
 10
140.079192
 20
17.325622
 30
0.0
 10
140.195085
 20
16.963341
 30
0.0
 10
140.242219
 20
16.569972
 30
0.0
 10
140.215276
 20
15.745531
 30
0.0
 10
140.168489
 20
14.963422
 30
0.0
 10
140.151826
 20
14.788902
 30
0.0
 10
140.090745
 20
14.647289
 30
0.0
 10
139.994013
 20
14.540006
 30
0.0
 10
139.870392
 20
14.468475
 30
0.0
 10
139.577542
 20
14.438357
 30
0.0
 10
139.425842
 20
14.482614
 30
0.0
 10
139.282311
 20
14.568311
 30
0.0
 10
138.539670
 20
15.054527
 30
0.0
 10
137.754431
 20
15.473539
 30
0.0
 10
137.343439
 20
15.630889
 30
0.0
 10
136.918920
 20
15.739092
 30
0.0
 10
136.479916
 20
15.787368
 30
0.0
 10
136.025467
 20
15.764933
 30
0.0
 10
135.534141
 20
15.718775
 30
0.0
 10
135.077773
 20
15.572405
 30
0.0
 10
134.661953
 20
15.339384
 30
0.0
 10
134.292269
 20
15.033272
 30
0.0
 10
133.974312
 20
14.667629
 30
0.0
 10
133.713670
 20
14.256015
 30
0.0
 10
133.515932
 20
13.811989
 30
0.0
 10
133.386689
 20
13.349111
 30
0.0
 10
133.195880
 20
12.090400
 30
0.0
 10
133.156253
 20
11.450858
 30
0.0
 10
133.159853
 20
10.810522
 30
0.0
 10
133.211210
 20
10.173891
 30
0.0
 10
133.314855
 20
9.545461
 30
0.0
 10
133.475319
 20
8.929732
 30
0.0
 10
133.697133
 20
8.331200
 30
0.0
 10
133.916302
 20
7.940311
 30
0.0
 10
134.196887
 20
7.601215
 30
0.0
 10
134.529132
 20
7.316490
 30
0.0
 10
134.903281
 20
7.088717
 30
0.0
 10
135.309576
 20
6.920475
 30
0.0
 10
135.738261
 20
6.814344
 30
0.0
 10
136.179581
 20
6.772903
 30
0.0
 10
136.623778
 20
6.798733
 30
0.0
 10
137.106775
 20
6.858083
 30
0.0
 10
137.560932
 20
6.993070
 30
0.0
 10
137.992600
 20
7.186728
 30
0.0
 10
138.408128
 20
7.422092
 30
0.0
 10
139.216165
 20
7.950068
 30
0.0
 10
140.035844
 20
8.441267
 30
0.0
 10
140.253332
 20
7.636272
 30
0.0
 10
140.353344
 20
6.806142
 30
0.0
 10
140.326357
 20
5.972307
 30
0.0
 10
140.162844
 20
5.156200
 30
0.0
 10
139.697128
 20
4.720646
 30
0.0
 10
139.173435
 20
4.367874
 30
0.0
 10
138.603374
 20
4.090442
 30
0.0
 10
137.998553
 20
3.880908
 30
0.0
 10
137.370581
 20
3.731832
 30
0.0
 10
136.731066
 20
3.635772
 30
0.0
 10
135.463844
 20
3.572933
 30
0.0
 10
134.738594
 20
3.599381
 30
0.0
 10
134.016882
 20
3.706195
 30
0.0
 10
133.311244
 20
3.893311
 30
0.0
 10
132.634214
 20
4.160661
 30
0.0
 10
131.998326
 20
4.508180
 30
0.0
 10
131.416116
 20
4.935802
 30
0.0
 10
130.900118
 20
5.443460
 30
0.0
 10
130.462867
 20
6.031089
 30
0.0
 10
130.014916
 20
6.849875
 30
0.0
 10
129.673262
 20
7.710399
 30
0.0
 10
129.429900
 20
8.603335
 30
0.0
 10
129.276828
 20
9.519356
 30
0.0
 10
129.206041
 20
10.449134
 30
0.0
 10
129.209535
 20
11.383345
 30
0.0
 10
129.279308
 20
12.312661
 30
0.0
 10
129.407356
 20
13.227756
 30
0.0
 10
129.590315
 20
14.059302
 30
0.0
 10
129.866672
 20
14.871039
 30
0.0
 10
130.234046
 20
15.646858
 30
0.0
 10
130.690056
 20
16.370653
 30
0.0
 10
131.232319
 20
17.026318
 30
0.0
 10
131.858456
 20
17.597746
 30
0.0
 10
132.566084
 20
18.068831
 30
0.0
 10
133.352822
 20
18.423467
 30
0.0
 10
133.352822
 20
18.423467
 30
0.0
  0
LWPOLYLINE
  5
10d
100
AcDbEntity
  8
0
 62
7
100
AcDbPolyline
 90
113
 70
0
 10
157.519511
 20
18.017067
 30
0.0
 10
158.297750
 20
18.391832
 30
0.0
 10
159.117330
 20
18.658284
 30
0.0
 10
159.966146
 20
18.821880
 30
0.0
 10
160.832094
 20
18.888075
 30
0.0
 10
161.703070
 20
18.862328
 30
0.0
 10
162.566967
 20
18.750095
 30
0.0
 10
163.411683
 20
18.556833
 30
0.0
 10
164.225111
 20
18.288000
 30
0.0
 10
164.547467
 20
18.147892
 30
0.0
 10
164.775665
 20
17.940249
 30
0.0
 10
164.925347
 20
17.679293
 30
0.0
 10
165.012158
 20
17.379244
 30
0.0
 10
165.059739
 20
16.718756
 30
0.0
 10
165.043556
 20
16.072556
 30
0.0
 10
164.999458
 20
15.518342
 30
0.0
 10
164.898696
 20
15.287934
 30
0.0
 10
164.796804
 20
15.210912
 30
0.0
 10
164.648444
 20
15.169444
 30
0.0
 10
163.558141
 20
15.656631
 30
0.0
 10
162.992930
 20
15.873699
 30
0.0
 10
162.417831
 20
16.050683
 30
0.0
 10
161.835455
 20
16.170782
 30
0.0
 10
161.248416
 20
16.217194
 30
0.0
 10
160.659327
 20
16.173119
 30
0.0
 10
160.070800
 20
16.021756
 30
0.0
 10
159.722399
 20
15.847946
 30
0.0
 10
159.458466
 20
15.582194
 30
0.0
 10
159.282507
 20
15.252413
 30
0.0
 10
159.198028
 20
14.886517
 30
0.0
 10
159.208534
 20
14.512418
 30
0.0
 10
159.317531
 20
14.158031
 30
0.0
 10
159.528525
 20
13.851268
 30
0.0
 10
159.845022
 20
13.620044
 30
0.0
 10
160.439387
 20
13.294982
 30
0.0
 10
161.060871
 20
13.018735
 30
0.0
 10
162.337044
 20
12.526433
 30
0.0
 10
162.967657
 20
12.267252
 30
0.0
 10
163.577235
 20
11.970632
 30
0.0
 10
164.153740
 20
11.615010
 30
0.0
 10
164.685133
 20
11.178822
 30
0.0
 10
165.020119
 20
10.814999
 30
0.0
 10
165.298619
 20
10.415461
 30
0.0
 10
165.521566
 20
9.986231
 30
0.0
 10
165.689889
 20
9.533334
 30
0.0
 10
165.804517
 20
9.062793
 30
0.0
 10
165.866382
 20
8.580630
 30
0.0
 10
165.876414
 20
8.092870
 30
0.0
 10
165.835542
 20
7.605536
 30
0.0
 10
165.744697
 20
7.124651
 30
0.0
 10
165.604808
 20
6.656239
 30
0.0
 10
165.416808
 20
6.206322
 30
0.0
 10
165.181624
 20
5.780925
 30
0.0
 10
164.900188
 20
5.386071
 30
0.0
 10
164.573430
 20
5.027783
 30
0.0
 10
164.202279
 20
4.712085
 30
0.0
 10
163.787667
 20
4.445000
 30
0.0
 10
162.945696
 20
4.053725
 30
0.0
 10
162.062054
 20
3.775957
 30
0.0
 10
161.149043
 20
3.606403
 30
0.0
 10
160.218967
 20
3.539772
 30
0.0
 10
159.284128
 20
3.570773
 30
0.0
 10
158.356829
 20
3.694113
 30
0.0
 10
157.449374
 20
3.904500
 30
0.0
 10
156.574067
 20
4.196644
 30
0.0
 10
156.317506
 20
4.300066
 30
0.0
 10
156.098765
 20
4.433601
 30
0.0
 10
155.765676
 20
4.778375
 30
0.0
 10
155.556678
 20
5.205699
 30
0.0
 10
155.453644
 20
5.690306
 30
0.0
 10
155.438453
 20
6.206927
 30
0.0
 10
155.492979
 20
6.730294
 30
0.0
 10
155.599099
 20
7.235141
 30
0.0
 10
155.738689
 20
7.696200
 30
0.0
 10
157.014730
 20
7.125317
 30
0.0
 10
157.668047
 20
6.846788
 30
0.0
 10
158.331253
 20
6.606822
 30
0.0
 10
159.004116
 20
6.430885
 30
0.0
 10
159.686405
 20
6.344444
 30
0.0
 10
160.377888
 20
6.372964
 30
0.0
 10
161.078333
 20
6.541911
 30
0.0
 10
161.433503
 20
6.697437
 30
0.0
 10
161.726298
 20
6.941035
 30
0.0
 10
161.946993
 20
7.249390
 30
0.0
 10
162.085867
 20
7.599186
 30
0.0
 10
162.133194
 20
7.967106
 30
0.0
 10
162.079252
 20
8.329833
 30
0.0
 10
161.914317
 20
8.664051
 30
0.0
 10
161.628667
 20
8.946444
 30
0.0
 10
161.053887
 20
9.312159
 30
0.0
 10
160.443554
 20
9.614738
 30
0.0
 10
159.170864
 20
10.127192
 30
0.0
 10
158.535825
 20
10.385419
 30
0.0
 10
157.919870
 20
10.677216
 30
0.0
 10
157.336656
 20
11.026758
 30
0.0
 10
156.799844
 20
11.458222
 30
0.0
 10
156.465808
 20
11.804330
 30
0.0
 10
156.185085
 20
12.186747
 30
0.0
 10
155.957080
 20
12.599517
 30
0.0
 10
155.781199
 20
13.036682
 30
0.0
 10
155.656844
 20
13.492286
 30
0.0
 10
155.583423
 20
13.960370
 30
0.0
 10
155.560338
 20
14.434978
 30
0.0
 10
155.586994
 20
14.910153
 30
0.0
 10
155.662798
 20
15.379936
 30
0.0
 10
155.787152
 20
15.838372
 30
0.0
 10
155.959462
 20
16.279502
 30
0.0
 10
156.179132
 20
16.697369
 30
0.0
 10
156.445567
 20
17.086017
 30
0.0
 10
156.758173
 20
17.439487
 30
0.0
 10
157.116352
 20
17.751823
 30
0.0
 10
157.519511
 20
18.017067
 30
0.0
 10
157.519511
 20
18.017067
 30
0.0
  0
LWPOLYLINE
  5
10e
100
AcDbEntity
  8
0
 62
7
100
AcDbPolyline
 90
47
 70
0
 10
26.300289
 20
18.307756
 30
0.0
 10
26.677298
 20
18.493703
 30
0.0
 10
27.076400
 20
18.614231
 30
0.0
 10
27.491906
 20
18.680124
 30
0.0
 10
27.918128
 20
18.702161
 30
0.0
 10
28.779964
 20
18.657799
 30
0.0
 10
29.616400
 20
18.567400
 30
0.0
 10
29.789807
 20
18.542435
 30
0.0
 10
29.932092
 20
18.475105
 30
0.0
 10
30.141686
 20
18.246019
 30
0.0
 10
30.281959
 20
17.945497
 30
0.0
 10
30.389689
 20
17.638889
 30
0.0
 10
33.403822
 20
7.837311
 30
0.0
 10
34.272317
 20
10.452320
 30
0.0
 10
35.074931
 20
13.089819
 30
0.0
 10
35.869607
 20
15.729964
 30
0.0
 10
36.714289
 20
18.352911
 30
0.0
 10
37.155636
 20
18.522239
 30
0.0
 10
37.612990
 20
18.632267
 30
0.0
 10
38.081722
 20
18.689312
 30
0.0
 10
38.557200
 20
18.699692
 30
0.0
 10
39.509876
 20
18.605720
 30
0.0
 10
40.433978
 20
18.400889
 30
0.0
 10
40.274875
 20
17.419108
 30
0.0
 10
40.024756
 20
16.456378
 30
0.0
 10
36.073644
 20
4.583289
 30
0.0
 10
35.928928
 20
4.280584
 30
0.0
 10
35.716545
 20
4.071938
 30
0.0
 10
35.451642
 20
3.939756
 30
0.0
 10
35.149367
 20
3.866444
 30
0.0
 10
34.493288
 20
3.826051
 30
0.0
 10
33.869489
 20
3.810000
 30
0.0
 10
33.082133
 20
3.817761
 30
0.0
 10
32.278108
 20
3.810706
 30
0.0
 10
31.881834
 20
3.837010
 30
0.0
 10
31.495780
 20
3.902075
 30
0.0
 10
31.124740
 20
4.020057
 30
0.0
 10
30.773511
 20
4.205111
 30
0.0
 10
29.739652
 20
7.103710
 30
0.0
 10
28.767969
 20
10.026650
 30
0.0
 10
27.814808
 20
12.956999
 30
0.0
 10
26.836511
 20
15.877822
 30
0.0
 10
26.445633
 20
17.074797
 30
0.0
 10
26.308667
 20
17.684794
 30
0.0
 10
26.284204
 20
17.994406
 30
0.0
 10
26.300289
 20
18.307756
 30
0.0
 10
26.300289
 20
18.307756
 30
0.0
  0
LWPOLYLINE
  5
10f
100
AcDbEntity
  8
0
 62
7
100
AcDbPolyline
 90
19
 70
0
 10
41.111311
 20
18.378311
 30
0.0
 10
42.057285
 20
18.603339
 30
0.0
 10
43.023367
 20
18.679936
 30
0.0
 10
43.989449
 20
18.605720
 30
0.0
 10
44.935422
 20
18.378311
 30
0.0
 10
44.944947
 20
11.256081
 30
0.0
 10
44.969289
 20
4.131733
 30
0.0
 10
44.498292
 20
3.977586
 30
0.0
 10
44.011718
 20
3.866930
 30
0.0
 10
43.514891
 20
3.800392
 30
0.0
 10
43.013136
 20
3.778603
 30
0.0
 10
42.511778
 20
3.802189
 30
0.0
 10
42.016142
 20
3.871780
 30
0.0
 10
41.531552
 20
3.988004
 30
0.0
 10
41.063333
 20
4.151489
 30
0.0
 10
41.066156
 20
11.264900
 30
0.0
 10
41.069683
 20
14.821870
 30
0.0
 10
41.111311
 20
18.378311
 30
0.0
 10
41.111311
 20
18.378311
 30
0.0
  0
LWPOLYLINE
  5
110
100
AcDbEntity
  8
0
 62
7
100
AcDbPolyline
 90
21
 70
0
 10
66.367378
 20
15.175089
 30
0.0
 10
66.580363
 20
15.423026
 30
0.0
 10
66.823619
 20
15.636566
 30
0.0
 10
67.382584
 20
15.960196
 30
0.0
 10
68.007563
 20
16.145448
 30
0.0
 10
68.661844
 20
16.191794
 30
0.0
 10
69.308718
 20
16.098705
 30
0.0
 10
69.911472
 20
15.865651
 30
0.0
 10
70.184832
 20
15.696472
 30
0.0
 10
70.433395
 20
15.492104
 30
0.0
 10
70.652574
 20
15.252480
 30
0.0
 10
70.837778
 20
14.977533
 30
0.0
 10
71.064393
 20
14.453614
 30
0.0
 10
71.198669
 20
13.899797
 30
0.0
 10
71.345778
 20
12.764911
 30
0.0
 10
65.585622
 20
12.742333
 30
0.0
 10
65.662925
 20
13.385580
 30
0.0
 10
65.797642
 20
14.021153
 30
0.0
 10
66.021788
 20
14.625505
 30
0.0
 10
66.367378
 20
15.175089
 30
0.0
 10
66.367378
 20
15.175089
 30
0.0
  0
LWPOLYLINE
  5
111
100
AcDbEntity
  8
0
 62
7
100
AcDbPolyline
 90
52
 70
0
 10
81.946044
 20
15.666156
 30
0.0
 10
82.402412
 20
15.792461
 30
0.0
 10
82.877069
 20
15.860624
 30
0.0
 10
83.358671
 20
15.868066
 30
0.0
 10
83.835875
 20
15.812206
 30
0.0
 10
84.297336
 20
15.690464
 30
0.0
 10
84.731710
 20
15.500262
 30
0.0
 10
85.127654
 20
15.239019
 30
0.0
 10
85.473822
 20
14.904156
 30
0.0
 10
85.737540
 20
14.543881
 30
0.0
 10
85.946853
 20
14.156619
 30
0.0
 10
86.108475
 20
13.747662
 30
0.0
 10
86.229119
 20
13.322300
 30
0.0
 10
86.374332
 20
12.443531
 30
0.0
 10
86.436200
 20
11.562644
 30
0.0
 10
86.424911
 20
10.589639
 30
0.0
 10
86.314139
 20
9.616369
 30
0.0
 10
86.207225
 20
9.140797
 30
0.0
 10
86.058375
 20
8.678554
 30
0.0
 10
85.861900
 20
8.234103
 30
0.0
 10
85.612111
 20
7.811911
 30
0.0
 10
85.354330
 20
7.505026
 30
0.0
 10
85.055345
 20
7.243707
 30
0.0
 10
84.721840
 20
7.027947
 30
0.0
 10
84.360500
 20
6.857735
 30
0.0
 10
83.978009
 20
6.733066
 30
0.0
 10
83.581054
 20
6.653929
 30
0.0
 10
83.176318
 20
6.620317
 30
0.0
 10
82.770486
 20
6.632222
 30
0.0
 10
82.370244
 20
6.689635
 30
0.0
 10
81.982276
 20
6.792549
 30
0.0
 10
81.613267
 20
6.940954
 30
0.0
 10
81.269902
 20
7.134842
 30
0.0
 10
80.958865
 20
7.374206
 30
0.0
 10
80.686843
 20
7.659037
 30
0.0
 10
80.460519
 20
7.989327
 30
0.0
 10
80.286578
 20
8.365067
 30
0.0
 10
80.085434
 20
8.950347
 30
0.0
 10
79.935784
 20
9.550047
 30
0.0
 10
79.835678
 20
10.160331
 30
0.0
 10
79.783164
 20
10.777361
 30
0.0
 10
79.776290
 20
11.397302
 30
0.0
 10
79.813106
 20
12.016317
 30
0.0
 10
80.010000
 20
13.236222
 30
0.0
 10
80.264882
 20
14.004440
 30
0.0
 10
80.449936
 20
14.367465
 30
0.0
 10
80.673222
 20
14.706247
 30
0.0
 10
80.934609
 20
15.013147
 30
0.0
 10
81.233963
 20
15.280525
 30
0.0
 10
81.571152
 20
15.500741
 30
0.0
 10
81.946044
 20
15.666156
 30
0.0
 10
81.946044
 20
15.666156
 30
0.0
  0
LWPOLYLINE
  5
112
100
AcDbEntity
  8
0
 62
7
100
AcDbPolyline
 90
49
 70
0
 10
120.291578
 20
15.756467
 30
0.0
 10
120.724574
 20
15.849699
 30
0.0
 10
121.170568
 20
15.892727
 30
0.0
 10
121.620067
 20
15.882971
 30
0.0
 10
122.063581
 20
15.817850
 30
0.0
 10
122.491616
 20
15.694786
 30
0.0
 10
122.894681
 20
15.511198
 30
0.0
 10
123.263284
 20
15.264507
 30
0.0
 10
123.587933
 20
14.952133
 30
0.0
 10
123.876048
 20
14.556251
 30
0.0
 10
124.102151
 20
14.130338
 30
0.0
 10
124.274081
 20
13.680347
 30
0.0
 10
124.399675
 20
13.212233
 30
0.0
 10
124.543211
 20
12.245446
 30
0.0
 10
124.595467
 20
11.277600
 30
0.0
 10
124.545240
 20
10.313106
 30
0.0
 10
124.396853
 20
9.350728
 30
0.0
 10
124.269065
 20
8.884554
 30
0.0
 10
124.096595
 20
8.435975
 30
0.0
 10
123.872730
 20
8.010679
 30
0.0
 10
123.590756
 20
7.614356
 30
0.0
 10
123.236192
 20
7.269967
 30
0.0
 10
122.830167
 20
7.004491
 30
0.0
 10
122.384454
 20
6.813759
 30
0.0
 10
121.910828
 20
6.693606
 30
0.0
 10
121.421062
 20
6.639862
 30
0.0
 10
120.926931
 20
6.648362
 30
0.0
 10
120.440207
 20
6.714938
 30
0.0
 10
119.972667
 20
6.835422
 30
0.0
 10
119.598987
 20
6.995975
 30
0.0
 10
119.268699
 20
7.215496
 30
0.0
 10
118.980479
 20
7.484958
 30
0.0
 10
118.733006
 20
7.795331
 30
0.0
 10
118.524955
 20
8.137586
 30
0.0
 10
118.355004
 20
8.502694
 30
0.0
 10
118.124111
 20
9.265356
 30
0.0
 10
117.973034
 20
10.300229
 30
0.0
 10
117.925144
 20
11.346744
 30
0.0
 10
117.991555
 20
12.391143
 30
0.0
 10
118.183378
 20
13.419667
 30
0.0
 10
118.309038
 20
13.810274
 30
0.0
 10
118.475875
 20
14.189207
 30
0.0
 10
118.682994
 20
14.548230
 30
0.0
 10
118.929503
 20
14.879108
 30
0.0
 10
119.214509
 20
15.173606
 30
0.0
 10
119.537118
 20
15.423489
 30
0.0
 10
119.896439
 20
15.620520
 30
0.0
 10
120.291578
 20
15.756467
 30
0.0
 10
120.291578
 20
15.756467
 30
0.0
  0
LWPOLYLINE
  5
113
100
AcDbEntity
  8
0
 62
7
100
AcDbPolyline
 90
44
 70
0
 10
52.287311
 20
15.479889
 30
0.0
 10
52.586370
 20
15.579635
 30
0.0
 10
52.881935
 20
15.635447
 30
0.0
 10
53.459724
 20
15.627923
 30
0.0
 10
54.014958
 20
15.482617
 30
0.0
 10
54.541914
 20
15.224831
 30
0.0
 10
55.034871
 20
14.879863
 30
0.0
 10
55.488108
 20
14.473017
 30
0.0
 10
55.895903
 20
14.029592
 30
0.0
 10
56.252533
 20
13.574889
 30
0.0
 10
56.325867
 20
12.793927
 30
0.0
 10
56.329086
 20
12.007144
 30
0.0
 10
56.311668
 20
11.218245
 30
0.0
 10
56.323089
 20
10.430933
 30
0.0
 10
56.329439
 20
9.473847
 30
0.0
 10
56.253239
 20
9.013693
 30
0.0
 10
56.155012
 20
8.804766
 30
0.0
 10
56.001356
 20
8.616244
 30
0.0
 10
55.348805
 20
7.908572
 30
0.0
 10
54.983867
 20
7.581988
 30
0.0
 10
54.593067
 20
7.294033
 30
0.0
 10
54.176337
 20
7.060053
 30
0.0
 10
53.733612
 20
6.895394
 30
0.0
 10
53.264825
 20
6.815402
 30
0.0
 10
52.769911
 20
6.835422
 30
0.0
 10
52.405640
 20
6.900774
 30
0.0
 10
52.071367
 20
7.033331
 30
0.0
 10
51.768248
 20
7.223566
 30
0.0
 10
51.497442
 20
7.461956
 30
0.0
 10
51.260105
 20
7.738974
 30
0.0
 10
51.057395
 20
8.045097
 30
0.0
 10
50.760489
 20
8.706556
 30
0.0
 10
50.519321
 20
9.686616
 30
0.0
 10
50.410181
 20
10.690225
 30
0.0
 10
50.414811
 20
11.701771
 30
0.0
 10
50.514956
 20
12.705644
 30
0.0
 10
50.711320
 20
13.538376
 30
0.0
 10
50.864156
 20
13.944093
 30
0.0
 10
51.057175
 20
14.329833
 30
0.0
 10
51.293189
 20
14.685940
 30
0.0
 10
51.575009
 20
15.002757
 30
0.0
 10
51.905446
 20
15.270626
 30
0.0
 10
52.287311
 20
15.479889
 30
0.0
 10
52.287311
 20
15.479889
 30
0.0
  0
LWPOLYLINE
  5
114
100
AcDbEntity
  8
0
 62
7
100
AcDbPolyline
 90
41
 70
0
 10
97.262244
 20
13.498689
 30
0.0
 10
97.920616
 20
14.248606
 30
0.0
 10
98.277550
 20
14.611824
 30
0.0
 10
98.657833
 20
14.945078
 30
0.0
 10
99.065104
 20
15.231765
 30
0.0
 10
99.503001
 20
15.455283
 30
0.0
 10
99.975161
 20
15.599029
 30
0.0
 10
100.485222
 20
15.646400
 30
0.0
 10
100.903231
 20
15.611458
 30
0.0
 10
101.291408
 20
15.491222
 30
0.0
 10
101.646379
 20
15.297497
 30
0.0
 10
101.964772
 20
15.042092
 30
0.0
 10
102.243213
 20
14.736812
 30
0.0
 10
102.478328
 20
14.393466
 30
0.0
 10
102.666745
 20
14.023859
 30
0.0
 10
102.805089
 20
13.639800
 30
0.0
 10
102.953460
 20
13.038507
 30
0.0
 10
103.060720
 20
12.426730
 30
0.0
 10
103.124921
 20
11.808271
 30
0.0
 10
103.144108
 20
11.186936
 30
0.0
 10
103.116333
 20
10.566527
 30
0.0
 10
103.039642
 20
9.950847
 30
0.0
 10
102.912085
 20
9.343700
 30
0.0
 10
102.731711
 20
8.748889
 30
0.0
 10
102.579521
 20
8.394077
 30
0.0
 10
102.386783
 20
8.051932
 30
0.0
 10
102.155548
 20
7.732740
 30
0.0
 10
101.887867
 20
7.446786
 30
0.0
 10
101.585790
 20
7.204356
 30
0.0
 10
101.251367
 20
7.015736
 30
0.0
 10
100.886650
 20
6.891211
 30
0.0
 10
100.493689
 20
6.841067
 30
0.0
 10
99.979653
 20
6.870898
 30
0.0
 10
99.504015
 20
7.003521
 30
0.0
 10
99.063103
 20
7.221074
 30
0.0
 10
98.653247
 20
7.505700
 30
0.0
 10
98.270775
 20
7.839538
 30
0.0
 10
97.912017
 20
8.204729
 30
0.0
 10
97.250956
 20
8.957733
 30
0.0
 10
97.262244
 20
13.498689
 30
0.0
 10
97.262244
 20
13.498689
 30
0.0
  0
LWPOLYLINE
  5
115
100
AcDbEntity
  8
0
 62
7
100
AcDbPolyline
 90
20
 70
0
 10
8.568267
 20
14.531622
 30
0.0
 10
10.536414
 20
14.583481
 30
0.0
 10
11.518239
 20
14.567738
 30
0.0
 10
12.485511
 20
14.438489
 30
0.0
 10
12.614804
 20
13.454327
 30
0.0
 10
12.643556
 20
12.455878
 30
0.0
 10
12.606867
 20
10.456333
 30
0.0
 10
12.403667
 20
10.055578
 30
0.0
 10
11.416242
 20
9.993445
 30
0.0
 10
10.424583
 20
9.983964
 30
0.0
 10
8.441267
 20
10.041467
 30
0.0
 10
8.105422
 20
10.416822
 30
0.0
 10
8.076142
 20
11.983156
 30
0.0
 10
8.082844
 20
13.549489
 30
0.0
 10
8.078920
 20
13.852966
 30
0.0
 10
8.133997
 20
14.169672
 30
0.0
 10
8.284854
 20
14.421820
 30
0.0
 10
8.407692
 20
14.499376
 30
0.0
 10
8.568267
 20
14.531622
 30
0.0
 10
8.568267
 20
14.531622
 30
0.0
  0
LWPOLYLINE
  5
116
100
AcDbEntity
  8
0
 62
7
100
AcDbPolyline
 90
30
 70
0
 10
14.286089
 20
13.843000
 30
0.0
 10
14.306396
 20
14.007334
 30
0.0
 10
14.367051
 20
14.155958
 30
0.0
 10
14.582422
 20
14.397214
 30
0.0
 10
14.878226
 20
14.549041
 30
0.0
 10
15.200489
 20
14.593711
 30
0.0
 10
17.473789
 20
14.603236
 30
0.0
 10
19.747089
 20
14.576778
 30
0.0
 10
20.008850
 20
14.546086
 30
0.0
 10
20.243094
 20
14.437078
 30
0.0
 10
20.675600
 20
14.136511
 30
0.0
 10
20.671367
 20
11.434939
 30
0.0
 10
20.673219
 20
10.085211
 30
0.0
 10
20.633267
 20
8.737600
 30
0.0
 10
20.537741
 20
8.533309
 30
0.0
 10
20.400874
 20
8.384381
 30
0.0
 10
20.231332
 20
8.281888
 30
0.0
 10
20.037778
 20
8.216900
 30
0.0
 10
19.613298
 20
8.163719
 30
0.0
 10
19.196756
 20
8.153400
 30
0.0
 10
17.213792
 20
8.154458
 30
0.0
 10
15.228711
 20
8.170333
 30
0.0
 10
14.866893
 20
8.212226
 30
0.0
 10
14.548203
 20
8.382706
 30
0.0
 10
14.330583
 20
8.660077
 30
0.0
 10
14.277782
 20
8.832067
 30
0.0
 10
14.271978
 20
9.022644
 30
0.0
 10
14.251517
 20
11.432822
 30
0.0
 10
14.286089
 20
13.843000
 30
0.0
 10
14.286089
 20
13.843000
 30
0.0
  0
LWPOLYLINE
  5
117
100
AcDbEntity
  8
0
 62
7
100
AcDbPolyline
 90
9
 70
0
 10
9.208911
 20
13.761156
 30
0.0
 10
10.455628
 20
13.053131
 30
0.0
 10
11.051999
 20
12.657446
 30
0.0
 10
11.613444
 20
12.211756
 30
0.0
 10
10.440811
 20
11.503378
 30
0.0
 10
9.242778
 20
10.837333
 30
0.0
 10
9.173986
 20
12.299244
 30
0.0
 10
9.208911
 20
13.761156
 30
0.0
 10
9.208911
 20
13.761156
 30
0.0
  0
LWPOLYLINE
  5
118
100
AcDbEntity
  8
0
 62
7
100
AcDbPolyline
 90
11
 70
0
 10
15.900400
 20
13.261622
 30
0.0
 10
16.793413
 20
12.893499
 30
0.0
 10
17.640653
 20
12.424833
 30
0.0
 10
18.450322
 20
11.888435
 30
0.0
 10
19.230622
 20
11.317111
 30
0.0
 10
17.647708
 20
10.313106
 30
0.0
 10
16.007644
 20
9.406467
 30
0.0
 10
15.882541
 20
10.364038
 30
0.0
 10
15.853481
 20
11.328753
 30
0.0
 10
15.900400
 20
13.261622
 30
0.0
 10
15.900400
 20
13.261622
 30
0.0
  0
ENDSEC
  0
SECTION
  2
OBJECTS
  0
DICTIONARY
  5
C
330
0
100
AcDbDictionary
  3
ACAD_GROUP
350
D
  3
ACAD_MLINESTYLE
350
17
  0
DICTIONARY
  5
D
330
C
100
AcDbDictionary
  0
DICTIONARY
  5
1A
330
C
100
AcDbDictionary
  0
DICTIONARY
  5
17
330
C
100
AcDbDictionary
  3
STANDARD
350
18
  0
DICTIONARY
  5
19
330
C
100
AcDbDictionary
  0
ENDSEC
  0
EOF
