solid OpenSCAD_Model
  facet normal -1 0 0
    outer loop
      vertex -3 0 28.5
      vertex -3 -3 28.5
      vertex -3 0 30
    endloop
  endfacet
  facet normal -1 0 0
    outer loop
      vertex -3 2 30
      vertex -3 28 -3
      vertex -3 2 0
    endloop
  endfacet
  facet normal -1 0 0
    outer loop
      vertex -3 -3 -3
      vertex -3 2 0
      vertex -3 28 -3
    endloop
  endfacet
  facet normal -1 -0 0
    outer loop
      vertex -3 2 0
      vertex -3 -3 -3
      vertex -3 0 0
    endloop
  endfacet
  facet normal -1 0 0
    outer loop
      vertex -3 -3 1.5
      vertex -3 0 0
      vertex -3 -3 -3
    endloop
  endfacet
  facet normal -1 0 0
    outer loop
      vertex -3 0 0
      vertex -3 -3 1.5
      vertex -3 0 1.5
    endloop
  endfacet
  facet normal -1 0 0
    outer loop
      vertex -3 28 -3
      vertex -3 2 30
      vertex -3 28 78.1
    endloop
  endfacet
  facet normal -1 0 0
    outer loop
      vertex -3 -3 78.1
      vertex -3 2 30
      vertex -3 0 30
    endloop
  endfacet
  facet normal -1 0 0
    outer loop
      vertex -3 -3 78.1
      vertex -3 0 30
      vertex -3 -3 28.5
    endloop
  endfacet
  facet normal -1 0 0
    outer loop
      vertex -3 2 30
      vertex -3 -3 78.1
      vertex -3 28 78.1
    endloop
  endfacet
  facet normal -0 0 1
    outer loop
      vertex -3 28 78.1
      vertex 246 -3 78.1
      vertex 246 28 78.1
    endloop
  endfacet
  facet normal 0 0 1
    outer loop
      vertex 246 -3 78.1
      vertex -3 28 78.1
      vertex -3 -3 78.1
    endloop
  endfacet
  facet normal 1 -0 0
    outer loop
      vertex 246 -3 78.1
      vertex 246 28 -3
      vertex 246 28 78.1
    endloop
  endfacet
  facet normal 1 0 0
    outer loop
      vertex 246 28 -3
      vertex 246 -3 78.1
      vertex 246 -3 -3
    endloop
  endfacet
  facet normal 0 0 -1
    outer loop
      vertex -3 -3 -3
      vertex 246 28 -3
      vertex 246 -3 -3
    endloop
  endfacet
  facet normal -0 0 -1
    outer loop
      vertex 246 28 -3
      vertex -3 -3 -3
      vertex -3 28 -3
    endloop
  endfacet
  facet normal 0 -1 0
    outer loop
      vertex -3 -3 1.5
      vertex -3 -3 -3
      vertex 120 -3 1.5
    endloop
  endfacet
  facet normal 0 -1 0
    outer loop
      vertex 120 -3 34.1
      vertex 123 -3 75.1
      vertex 120 -3 75.1
    endloop
  endfacet
  facet normal 0 -1 -0
    outer loop
      vertex 123 -3 75.1
      vertex 120 -3 34.1
      vertex 123 -3 34.1
    endloop
  endfacet
  facet normal 0 -1 0
    outer loop
      vertex 120 -3 75.1
      vertex -3 -3 78.1
      vertex 0 -3 75.1
    endloop
  endfacet
  facet normal 0 -1 0
    outer loop
      vertex -3 -3 78.1
      vertex 0 -3 34.1
      vertex 0 -3 75.1
    endloop
  endfacet
  facet normal 0 -1 0
    outer loop
      vertex 120 -3 28.5
      vertex 120 -3 34.1
      vertex 0 -3 34.1
    endloop
  endfacet
  facet normal 0 -1 0
    outer loop
      vertex 120 -3 34.1
      vertex 120 -3 28.5
      vertex 123 -3 34.1
    endloop
  endfacet
  facet normal 0 -1 0
    outer loop
      vertex 120 -3 28.5
      vertex 0 -3 34.1
      vertex -3 -3 28.5
    endloop
  endfacet
  facet normal 0 -1 0
    outer loop
      vertex -3 -3 28.5
      vertex 0 -3 34.1
      vertex -3 -3 78.1
    endloop
  endfacet
  facet normal 0 -1 0
    outer loop
      vertex -3 -3 78.1
      vertex 120 -3 75.1
      vertex 246 -3 78.1
    endloop
  endfacet
  facet normal 0 -1 0
    outer loop
      vertex 123 -3 75.1
      vertex 246 -3 78.1
      vertex 120 -3 75.1
    endloop
  endfacet
  facet normal 0 -1 0
    outer loop
      vertex 243 -3 75.1
      vertex 246 -3 78.1
      vertex 123 -3 75.1
    endloop
  endfacet
  facet normal 0 -1 0
    outer loop
      vertex 243 -3 34.1
      vertex 246 -3 78.1
      vertex 243 -3 75.1
    endloop
  endfacet
  facet normal 0 -1 0
    outer loop
      vertex 120 -3 1.5
      vertex 123 -3 34.1
      vertex 120 -3 28.5
    endloop
  endfacet
  facet normal 0 -1 -0
    outer loop
      vertex 123 -3 34.1
      vertex 120 -3 1.5
      vertex 243 -3 34.1
    endloop
  endfacet
  facet normal 0 -1 0
    outer loop
      vertex 243 -3 34.1
      vertex 246 -3 -3
      vertex 246 -3 78.1
    endloop
  endfacet
  facet normal 0 -1 0
    outer loop
      vertex 120 -3 1.5
      vertex 246 -3 -3
      vertex 243 -3 34.1
    endloop
  endfacet
  facet normal 0 -1 0
    outer loop
      vertex 246 -3 -3
      vertex 120 -3 1.5
      vertex -3 -3 -3
    endloop
  endfacet
  facet normal 0 1 -0
    outer loop
      vertex 246 28 -3
      vertex -3 28 78.1
      vertex 246 28 78.1
    endloop
  endfacet
  facet normal 0 1 0
    outer loop
      vertex -3 28 78.1
      vertex 246 28 -3
      vertex -3 28 -3
    endloop
  endfacet
  facet normal 1 0 0
    outer loop
      vertex 0 25 75.1
      vertex 0 0 34.1
      vertex 0 3 30
    endloop
  endfacet
  facet normal 1 0 0
    outer loop
      vertex 0 3 30
      vertex 0 0 34.1
      vertex 0 2 30
    endloop
  endfacet
  facet normal 1 -0 0
    outer loop
      vertex 0 -3 75.1
      vertex 0 0 34.1
      vertex 0 12.5 75.1
    endloop
  endfacet
  facet normal 1 0 0
    outer loop
      vertex 0 0 34.1
      vertex 0 -3 75.1
      vertex 0 -3 34.1
    endloop
  endfacet
  facet normal 1 0 0
    outer loop
      vertex 0 0 34.1
      vertex 0 25 75.1
      vertex 0 12.5 75.1
    endloop
  endfacet
  facet normal 1 0 0
    outer loop
      vertex 0 25 75.1
      vertex 0 3 30
      vertex 0 25 0
    endloop
  endfacet
  facet normal 1 0 0
    outer loop
      vertex 0 25 0
      vertex 0 3 30
      vertex 0 3 0
    endloop
  endfacet
  facet normal 1 0 0
    outer loop
      vertex 0 2 30
      vertex 0 0 34.1
      vertex 0 0 30
    endloop
  endfacet
  facet normal 0 0 -1
    outer loop
      vertex 123 0 75.1
      vertex 120 0 75.1
      vertex 123 12.5 75.1
    endloop
  endfacet
  facet normal 0 0 -1
    outer loop
      vertex 123 12.5 75.1
      vertex 243 25 75.1
      vertex 243 12.5 75.1
    endloop
  endfacet
  facet normal 0 0 -1
    outer loop
      vertex 120 12.5 75.1
      vertex 123 12.5 75.1
      vertex 120 0 75.1
    endloop
  endfacet
  facet normal 0 0 -1
    outer loop
      vertex 120 12.5 75.1
      vertex 243 25 75.1
      vertex 123 12.5 75.1
    endloop
  endfacet
  facet normal 0 0 -1
    outer loop
      vertex 0 25 75.1
      vertex 120 12.5 75.1
      vertex 0 12.5 75.1
    endloop
  endfacet
  facet normal 0 0 -1
    outer loop
      vertex 120 12.5 75.1
      vertex 0 25 75.1
      vertex 243 25 75.1
    endloop
  endfacet
  facet normal -1 0 0
    outer loop
      vertex 243 0 34.1
      vertex 243 25 75.1
      vertex 243 25 0
    endloop
  endfacet
  facet normal -1 0 0
    outer loop
      vertex 243 0 34.1
      vertex 243 25 0
      vertex 243 0 0
    endloop
  endfacet
  facet normal -1 -0 0
    outer loop
      vertex 243 25 75.1
      vertex 243 0 34.1
      vertex 243 12.5 75.1
    endloop
  endfacet
  facet normal -1 0 0
    outer loop
      vertex 243 -3 75.1
      vertex 243 0 34.1
      vertex 243 -3 34.1
    endloop
  endfacet
  facet normal -1 0 0
    outer loop
      vertex 243 0 34.1
      vertex 243 -3 75.1
      vertex 243 12.5 75.1
    endloop
  endfacet
  facet normal 0 -1 0
    outer loop
      vertex 0 25 0
      vertex 243 25 75.1
      vertex 0 25 75.1
    endloop
  endfacet
  facet normal 0 -1 -0
    outer loop
      vertex 243 25 75.1
      vertex 0 25 0
      vertex 243 25 0
    endloop
  endfacet
  facet normal 0 0 1
    outer loop
      vertex 243 25 0
      vertex 120 3 0
      vertex 243 0 0
    endloop
  endfacet
  facet normal -0 0 1
    outer loop
      vertex 0 25 0
      vertex 120 3 0
      vertex 243 25 0
    endloop
  endfacet
  facet normal 0 0 1
    outer loop
      vertex 120 3 0
      vertex 0 25 0
      vertex 0 3 0
    endloop
  endfacet
  facet normal -0 0 1
    outer loop
      vertex 120 2 0
      vertex 243 0 0
      vertex 120 3 0
    endloop
  endfacet
  facet normal 0 0 1
    outer loop
      vertex -3 0 0
      vertex 120 2 0
      vertex -3 2 0
    endloop
  endfacet
  facet normal 0 0 1
    outer loop
      vertex 120 2 0
      vertex -3 0 0
      vertex 243 0 0
    endloop
  endfacet
  facet normal 0 1 -0
    outer loop
      vertex 243 0 0
      vertex 123 0 34.1
      vertex 243 0 34.1
    endloop
  endfacet
  facet normal 0 1 0
    outer loop
      vertex 123 0 34.1
      vertex 120 0 28.5
      vertex 120 0 34.1
    endloop
  endfacet
  facet normal -0 1 0
    outer loop
      vertex 0 0 30
      vertex 120 0 34.1
      vertex 120 0 28.5
    endloop
  endfacet
  facet normal 0 1 0
    outer loop
      vertex -3 0 28.5
      vertex 0 0 30
      vertex 120 0 28.5
    endloop
  endfacet
  facet normal 0 1 0
    outer loop
      vertex 120 0 34.1
      vertex 0 0 30
      vertex 0 0 34.1
    endloop
  endfacet
  facet normal -0 1 0
    outer loop
      vertex 120 0 1.5
      vertex 123 0 34.1
      vertex 243 0 0
    endloop
  endfacet
  facet normal 0 1 0
    outer loop
      vertex 123 0 34.1
      vertex 120 0 1.5
      vertex 120 0 28.5
    endloop
  endfacet
  facet normal 0 1 0
    outer loop
      vertex -3 0 0
      vertex 120 0 1.5
      vertex 243 0 0
    endloop
  endfacet
  facet normal 0 1 0
    outer loop
      vertex 120 0 1.5
      vertex -3 0 0
      vertex -3 0 1.5
    endloop
  endfacet
  facet normal 0 1 -0
    outer loop
      vertex 123 0 34.1
      vertex 120 0 75.1
      vertex 123 0 75.1
    endloop
  endfacet
  facet normal 0 1 0
    outer loop
      vertex 120 0 75.1
      vertex 123 0 34.1
      vertex 120 0 34.1
    endloop
  endfacet
  facet normal 0 1 0
    outer loop
      vertex 0 0 30
      vertex -3 0 28.5
      vertex -3 0 30
    endloop
  endfacet
  facet normal -0 0 1
    outer loop
      vertex 0 3 30
      vertex 120 2 30
      vertex 120 3 30
    endloop
  endfacet
  facet normal 0 0 1
    outer loop
      vertex 120 2 30
      vertex 0 3 30
      vertex 0 2 30
    endloop
  endfacet
  facet normal 0 0 -1
    outer loop
      vertex -3 0 30
      vertex 0 2 30
      vertex 0 0 30
    endloop
  endfacet
  facet normal -0 0 -1
    outer loop
      vertex 0 2 30
      vertex -3 0 30
      vertex -3 2 30
    endloop
  endfacet
  facet normal 1 -0 0
    outer loop
      vertex 120 2 30
      vertex 120 3 0
      vertex 120 3 30
    endloop
  endfacet
  facet normal 1 0 0
    outer loop
      vertex 120 3 0
      vertex 120 2 30
      vertex 120 2 0
    endloop
  endfacet
  facet normal 0 1 -0
    outer loop
      vertex 120 3 0
      vertex 0 3 30
      vertex 120 3 30
    endloop
  endfacet
  facet normal 0 1 0
    outer loop
      vertex 0 3 30
      vertex 120 3 0
      vertex 0 3 0
    endloop
  endfacet
  facet normal 0 0 -1
    outer loop
      vertex 0 -3 75.1
      vertex 120 12.5 75.1
      vertex 120 -3 75.1
    endloop
  endfacet
  facet normal -0 0 -1
    outer loop
      vertex 120 12.5 75.1
      vertex 0 -3 75.1
      vertex 0 12.5 75.1
    endloop
  endfacet
  facet normal -1 0 0
    outer loop
      vertex 120 -3 34.1
      vertex 120 0 75.1
      vertex 120 0 34.1
    endloop
  endfacet
  facet normal -1 -0 0
    outer loop
      vertex 120 0 75.1
      vertex 120 -3 34.1
      vertex 120 -3 75.1
    endloop
  endfacet
  facet normal 0 0 0
    outer loop
      vertex 120 0 75.1
      vertex 120 -3 75.1
      vertex 120 12.5 75.1
    endloop
  endfacet
  facet normal -0 0 1
    outer loop
      vertex 0 0 34.1
      vertex 120 -3 34.1
      vertex 120 0 34.1
    endloop
  endfacet
  facet normal 0 0 1
    outer loop
      vertex 120 -3 34.1
      vertex 0 0 34.1
      vertex 0 -3 34.1
    endloop
  endfacet
  facet normal 1 -0 0
    outer loop
      vertex 123 -3 75.1
      vertex 123 0 34.1
      vertex 123 0 75.1
    endloop
  endfacet
  facet normal 1 0 0
    outer loop
      vertex 123 0 34.1
      vertex 123 -3 75.1
      vertex 123 -3 34.1
    endloop
  endfacet
  facet normal 0 0 0
    outer loop
      vertex 123 -3 75.1
      vertex 123 0 75.1
      vertex 123 12.5 75.1
    endloop
  endfacet
  facet normal 0 0 -1
    outer loop
      vertex 123 -3 75.1
      vertex 243 12.5 75.1
      vertex 243 -3 75.1
    endloop
  endfacet
  facet normal -0 0 -1
    outer loop
      vertex 243 12.5 75.1
      vertex 123 -3 75.1
      vertex 123 12.5 75.1
    endloop
  endfacet
  facet normal -0 0 1
    outer loop
      vertex 123 0 34.1
      vertex 243 -3 34.1
      vertex 243 0 34.1
    endloop
  endfacet
  facet normal 0 0 1
    outer loop
      vertex 243 -3 34.1
      vertex 123 0 34.1
      vertex 123 -3 34.1
    endloop
  endfacet
  facet normal 0 -1 0
    outer loop
      vertex -3 2 0
      vertex 0 2 30
      vertex -3 2 30
    endloop
  endfacet
  facet normal 0 -1 0
    outer loop
      vertex 120 2 0
      vertex 0 2 30
      vertex -3 2 0
    endloop
  endfacet
  facet normal 0 -1 0
    outer loop
      vertex 0 2 30
      vertex 120 2 0
      vertex 120 2 30
    endloop
  endfacet
  facet normal 0 0 -1
    outer loop
      vertex -3 -3 28.5
      vertex 120 0 28.5
      vertex 120 -3 28.5
    endloop
  endfacet
  facet normal -0 0 -1
    outer loop
      vertex 120 0 28.5
      vertex -3 -3 28.5
      vertex -3 0 28.5
    endloop
  endfacet
  facet normal -1 0 0
    outer loop
      vertex 120 -3 1.5
      vertex 120 0 28.5
      vertex 120 0 1.5
    endloop
  endfacet
  facet normal -1 -0 0
    outer loop
      vertex 120 0 28.5
      vertex 120 -3 1.5
      vertex 120 -3 28.5
    endloop
  endfacet
  facet normal -0 0 1
    outer loop
      vertex -3 0 1.5
      vertex 120 -3 1.5
      vertex 120 0 1.5
    endloop
  endfacet
  facet normal 0 0 1
    outer loop
      vertex 120 -3 1.5
      vertex -3 0 1.5
      vertex -3 -3 1.5
    endloop
  endfacet
endsolid OpenSCAD_Model
